{"asset":{"version":"2.0","generator":"GLTFExporter"},"scenes":[{"name":"AuxScene","nodes":[28]}],"scene":0,"nodes":[{"name":"body.SPUD60_0","mesh":0},{"name":"body.SPUD60_1","mesh":1},{"matrix":[1,0,0,0,0,1,0,0,0,0,1,0,0.45959264039993286,0.31366872787475586,0.008797168731689453,1],"name":"handle_Griff_263043","extras":{"name":"handle_Griff_263.043"},"mesh":3},{"name":"Scharnier_675_Gegenstück_0","mesh":4},{"name":"Scharnier_675_Gegenstück_1","mesh":5},{"matrix":[-1.3435885648505064e-7,0,-0.9999999657714511,0,0,1,0,0,0.9999999657714511,0,-1.3435885648505064e-7,0,0.010527007281780243,0.19862598180770874,-0.01190030574798584,1],"name":"Scharnier_Gegenstück060","extras":{"name":"Scharnier_Gegenstück.060"},"children":[3,4]},{"name":"Scharnier_675_Gegenstück_0","mesh":4},{"name":"Scharnier_675_Gegenstück_1","mesh":5},{"matrix":[-1.3435885648505064e-7,0,-0.9999999657714511,0,0,1,0,0,0.9999999657714511,0,-1.3435885648505064e-7,0,0.006279520690441132,-0.2637193500995636,-0.011245667934417725,1],"name":"Scharnier_Gegenstück061","extras":{"name":"Scharnier_Gegenstück.061"},"children":[6,7]},{"matrix":[1,0,0,0,0,1,0,0,0,0,1,0,0.009041734039783478,0.34504956007003784,0.5716655254364014,1],"name":"front_Tür_600x720002","extras":{"name":"front_Tür_600x720.002"},"mesh":2,"children":[2,5,8]},{"name":"body_Sockel_Front","extras":{"name":"body_Sockel_Front"},"mesh":6},{"name":"body_Sockel_Side_left","extras":{"name":"body_Sockel_Side_left"},"mesh":7},{"matrix":[1,0,0,0,0,1,0,0,0,0,1,0,0.5843656659126282,0,0,1],"name":"body_Sockel_Side_right","extras":{"name":"body_Sockel_Side_right"},"mesh":8},{"name":"Scharnier.017_0","mesh":9},{"name":"Scharnier.017_1","mesh":10},{"matrix":[1,0,0,0,0,1,0,0,0,0,1,0,0.020292818546295166,0.08133020997047424,0.5779396295547485,1],"name":"Scharnier_SPUD45002","extras":{"name":"Scharnier_SPUD45.002"},"children":[13,14]},{"name":"Scharnier.017_0","mesh":9},{"name":"Scharnier.017_1","mesh":10},{"matrix":[1,0,0,0,0,1,0,0,0,0,1,0,0.02094203233718872,0.5436755418777466,0.5821924805641174,1],"name":"Scharnier_SPUD45003","extras":{"name":"Scharnier_SPUD45.003"},"children":[16,17]},{"name":"SPUD60","extras":{"name":"SPUD60"},"children":[0,1,9,10,11,12,15,18]},{"matrix":[1,0,0,0,0,1,0,0,0,0,1,0,-0.3,0,-0.2805,1],"name":"UniContainer","children":[19]},{"matrix":[-1,0,0,0,0,1,0,0,0,0,1,0,0,0,0,1],"name":"cabinet","children":[20]},{"matrix":[1,0,0,0,0,1,0,0,0,0,1,0,0,0,0.2805,1],"name":"unit","extras":{"id":1201,"unit":{"EAN":{"data":[["263_Metal_handle","L","0670036571135"],["263_Metal_handle","R","0670036571142"],["726_Metal_handle","L","4004539007550"],["726_Metal_handle","R","4004539007567"]],"order":["$.handle._id","openingSide"]},"VAT":19,"additionals":[],"allowSideNeighbours":false,"amount":1,"articleNumber":"31206","autoOpeningSide":false,"basePrice":0,"changeQuantity":"no","child":"","cornerElement":false,"depth":0.561,"description":"unit.description.31206","displayWidth":0,"exclusiveGroup":"","groupByWidth":"SPUD","handleCount":1,"height":0.72,"highboard":false,"itemImage":"assets/units/base units/31206.png","jointGroup":"bottom_cabinet_60","name":"unit.name.31206","openingSide":"R","outdated":false,"price":123,"priceVisibility":"both","reportCalculation":"fixed","reportCategory":"cabinets","requiresNeighbours":false,"showOpeningSide":true,"takeSideWall":false,"typeNo":"SPUD60","unitKind":"bottom","variantId":{"data":[["263_Metal_handle","L","0670036571135"],["263_Metal_handle","R","0670036571142"],["726_Metal_handle","L","4004539007550"],["726_Metal_handle","R","4004539007567"]],"order":["$.handle._id","openingSide"]},"view":"SPUD60","visibility":"both","width":0.6,"widthFilterValue":0,"zoomShift":0,"_id":"shu_31206"},"x":0,"y":0.2805,"sizeX":0.6,"sizeY":0.561,"rotate":0,"additionals":[],"scaleX":-1,"boxX":0,"boxY":0.2805,"zoomButton":{"x":0,"y":0.36,"z":0.601}},"children":[21]},{"matrix":[1.9999999205271435,0,0,0,0,1,0,0,0,0,1,0,0,0,0.3,1],"name":"worktop_Arbeitsplatte","extras":{"name":"worktop_Arbeitsplatte"},"mesh":11},{"name":"UniContainer","children":[23]},{"name":"worktop","children":[24]},{"name":"centralWall","children":[22,25]},{"matrix":[1,0,0,0,0,1,0,0,0,0,1,0,0.3000007867813063,0.3040009066462517,0.30773154087364674,1],"name":"bounds","mesh":12},{"matrix":[1,0,0,0,0,1,0,0,0,0,1,0,5.483627366631438e-7,0.15,-0.3077311534434557,1],"name":"Root","children":[26,27]}],"bufferViews":[{"buffer":0,"byteOffset":0,"byteLength":1800,"target":34962,"byteStride":12},{"buffer":0,"byteOffset":1800,"byteLength":1800,"target":34962,"byteStride":12},{"buffer":0,"byteOffset":3600,"byteLength":1200,"target":34962,"byteStride":8},{"buffer":0,"byteOffset":4800,"byteLength":732,"target":34963},{"buffer":0,"byteOffset":5532,"byteLength":240,"target":34962,"byteStride":12},{"buffer":0,"byteOffset":5772,"byteLength":240,"target":34962,"byteStride":12},{"buffer":0,"byteOffset":6012,"byteLength":160,"target":34962,"byteStride":8},{"buffer":0,"byteOffset":6172,"byteLength":60,"target":34963},{"buffer":0,"byteOffset":6232,"byteLength":1320,"target":34962,"byteStride":12},{"buffer":0,"byteOffset":7552,"byteLength":1320,"target":34962,"byteStride":12},{"buffer":0,"byteOffset":8872,"byteLength":880,"target":34962,"byteStride":8},{"buffer":0,"byteOffset":9752,"byteLength":504,"target":34963},{"buffer":0,"byteOffset":10256,"byteLength":4308,"target":34962,"byteStride":12},{"buffer":0,"byteOffset":14564,"byteLength":4308,"target":34962,"byteStride":12},{"buffer":0,"byteOffset":18872,"byteLength":2872,"target":34962,"byteStride":8},{"buffer":0,"byteOffset":21744,"byteLength":1320,"target":34963},{"buffer":0,"byteOffset":23064,"byteLength":10836,"target":34962,"byteStride":12},{"buffer":0,"byteOffset":33900,"byteLength":10836,"target":34962,"byteStride":12},{"buffer":0,"byteOffset":44736,"byteLength":7224,"target":34962,"byteStride":8},{"buffer":0,"byteOffset":51960,"byteLength":5868,"target":34963},{"buffer":0,"byteOffset":57828,"byteLength":336,"target":34962,"byteStride":12},{"buffer":0,"byteOffset":58164,"byteLength":336,"target":34962,"byteStride":12},{"buffer":0,"byteOffset":58500,"byteLength":224,"target":34962,"byteStride":8},{"buffer":0,"byteOffset":58724,"byteLength":156,"target":34963},{"buffer":0,"byteOffset":58880,"byteLength":288,"target":34962,"byteStride":12},{"buffer":0,"byteOffset":59168,"byteLength":288,"target":34962,"byteStride":12},{"buffer":0,"byteOffset":59456,"byteLength":192,"target":34962,"byteStride":8},{"buffer":0,"byteOffset":59648,"byteLength":72,"target":34963},{"buffer":0,"byteOffset":59720,"byteLength":288,"target":34962,"byteStride":12},{"buffer":0,"byteOffset":60008,"byteLength":288,"target":34962,"byteStride":12},{"buffer":0,"byteOffset":60296,"byteLength":192,"target":34962,"byteStride":8},{"buffer":0,"byteOffset":60488,"byteLength":72,"target":34963},{"buffer":0,"byteOffset":60560,"byteLength":288,"target":34962,"byteStride":12},{"buffer":0,"byteOffset":60848,"byteLength":288,"target":34962,"byteStride":12},{"buffer":0,"byteOffset":61136,"byteLength":192,"target":34962,"byteStride":8},{"buffer":0,"byteOffset":61328,"byteLength":18036,"target":34962,"byteStride":12},{"buffer":0,"byteOffset":79364,"byteLength":18036,"target":34962,"byteStride":12},{"buffer":0,"byteOffset":97400,"byteLength":12024,"target":34962,"byteStride":8},{"buffer":0,"byteOffset":109424,"byteLength":9516,"target":34963},{"buffer":0,"byteOffset":118940,"byteLength":2400,"target":34962,"byteStride":12},{"buffer":0,"byteOffset":121340,"byteLength":2400,"target":34962,"byteStride":12},{"buffer":0,"byteOffset":123740,"byteLength":1600,"target":34962,"byteStride":8},{"buffer":0,"byteOffset":125340,"byteLength":1248,"target":34963},{"buffer":0,"byteOffset":126588,"byteLength":876,"target":34962,"byteStride":12},{"buffer":0,"byteOffset":127464,"byteLength":876,"target":34962,"byteStride":12},{"buffer":0,"byteOffset":128340,"byteLength":584,"target":34962,"byteStride":8},{"buffer":0,"byteOffset":128924,"byteLength":216,"target":34963},{"buffer":0,"byteOffset":129140,"byteLength":288,"target":34962,"byteStride":12},{"buffer":0,"byteOffset":129428,"byteLength":288,"target":34962,"byteStride":12},{"buffer":0,"byteOffset":129716,"byteLength":192,"target":34962,"byteStride":8},{"buffer":0,"byteOffset":129908,"byteLength":72,"target":34963}],"buffers":[{"byteLength":129980,"uri":"data:application/octet-stream;base64,"}],"accessors":[{"bufferView":0,"componentType":5126,"count":150,"max":[0.6000006198883057,0.7200005054473877,0.5600003600120544],"min":[5.960464477539062e-7,4.470348358154297e-7,3.8743019104003906e-7],"type":"VEC3"},{"bufferView":1,"componentType":5126,"count":150,"max":[1,1,1],"min":[-1,-1,-1],"type":"VEC3"},{"bufferView":2,"componentType":5126,"count":150,"max":[3.998046636581421,0.9968602657318115],"min":[-0.001953005907125771,-2.682267189025879],"type":"VEC2"},{"bufferView":3,"componentType":5123,"count":366,"max":[149],"min":[0],"type":"SCALAR"},{"bufferView":4,"componentType":5126,"count":20,"max":[0.5840005874633789,0.7200005054473877,0.5600003600120544],"min":[0.01599087379872799,0.7040005326271057,3.8743019104003906e-7],"type":"VEC3"},{"bufferView":5,"componentType":5126,"count":20,"max":[3.3312495872905856e-8,1,1],"min":[0,-1,-1],"type":"VEC3"},{"bufferView":6,"componentType":5126,"count":20,"max":[3.5909223556518555,0.9968602657318115],"min":[-0.001953005907125771,-2.6534111499786377],"type":"VEC2"},{"bufferView":7,"componentType":5123,"count":30,"max":[19],"min":[0],"type":"SCALAR"},{"bufferView":8,"componentType":5126,"count":110,"max":[0.5904582142829895,0.3729477822780609,0.008797192946076393],"min":[-0.007037673145532608,-0.3430260419845581,-0.009702806361019611],"type":"VEC3"},{"bufferView":9,"componentType":5126,"count":110,"max":[0.9999977946281433,1,1],"min":[-1,-1,-1],"type":"VEC3"},{"bufferView":10,"componentType":5126,"count":110,"max":[2.0029375553131104,0.998426079750061],"min":[0.0029375250451266766,-0.48331165313720703],"type":"VEC2"},{"bufferView":11,"componentType":5123,"count":252,"max":[109],"min":[0],"type":"SCALAR"},{"bufferView":12,"componentType":5126,"count":359,"max":[0.08999999612569809,0.004999995231628418,0.03500000014901161],"min":[-0.09000001847743988,-0.004999995231628418,0],"type":"VEC3"},{"bufferView":13,"componentType":5126,"count":359,"max":[1,1,1],"min":[-1,-1,-1],"type":"VEC3"},{"bufferView":14,"componentType":5126,"count":359,"max":[0.8378099799156189,0.9694634675979614],"min":[0.15931542217731476,0],"type":"VEC2"},{"bufferView":15,"componentType":5123,"count":660,"max":[358],"min":[0],"type":"SCALAR"},{"bufferView":16,"componentType":5126,"count":903,"max":[0.002458542585372925,0.025608627125620842,0.011943607591092587],"min":[-0.0022758806589990854,-0.025606542825698853,-0.011849951930344105],"type":"VEC3"},{"bufferView":17,"componentType":5126,"count":903,"max":[1,1,1],"min":[-0.8340773582458496,-1,-1],"type":"VEC3"},{"bufferView":18,"componentType":5126,"count":903,"max":[0.11057363450527191,1],"min":[0,0.00795048475265503],"type":"VEC2"},{"bufferView":19,"componentType":5123,"count":2934,"max":[902],"min":[0],"type":"SCALAR"},{"bufferView":20,"componentType":5126,"count":28,"max":[-0.001326986588537693,0.008202727884054184,0.01042647659778595],"min":[-0.001326986588537693,-0.008200645446777344,-0.01036254595965147],"type":"VEC3"},{"bufferView":21,"componentType":5126,"count":28,"max":[1,0,2.0381557774840076e-8],"min":[0.9999999403953552,0,9.608998041699124e-9],"type":"VEC3"},{"bufferView":22,"componentType":5126,"count":28,"max":[0,1],"min":[0,1],"type":"VEC2"},{"bufferView":23,"componentType":5123,"count":78,"max":[27],"min":[0],"type":"SCALAR"},{"bufferView":24,"componentType":5126,"count":24,"max":[0.600001335144043,4.76837158203125e-7,0.5],"min":[4.76837158203125e-7,-0.14999866485595703,0.49000000953674316],"type":"VEC3"},{"bufferView":25,"componentType":5126,"count":24,"max":[0.9999999403953552,1,1],"min":[-0.9999999403953552,-1,-1],"type":"VEC3"},{"bufferView":26,"componentType":5126,"count":24,"max":[1.005467176437378,0.9937484264373779],"min":[0.005467206239700317,0.4437514543533325],"type":"VEC2"},{"bufferView":27,"componentType":5123,"count":36,"max":[23],"min":[0],"type":"SCALAR"},{"bufferView":28,"componentType":5126,"count":24,"max":[0.020000599324703217,0.0000013262448419482098,0.49000000953674316],"min":[5.960464477539062e-7,-0.14999867975711823,6.656319442299719e-7],"type":"VEC3"},{"bufferView":29,"componentType":5126,"count":24,"max":[1,1,1],"min":[-1,-1,-1],"type":"VEC3"},{"bufferView":30,"componentType":5126,"count":24,"max":[1,0.9999999403953552],"min":[-2.9802322387695312e-8,0],"type":"VEC2"},{"bufferView":31,"componentType":5123,"count":36,"max":[23],"min":[0],"type":"SCALAR"},{"bufferView":32,"componentType":5126,"count":24,"max":[0.015632903203368187,0.0000013262448419482098,0.49000000953674316],"min":[-0.0004570484161376953,-0.14999867975711823,6.656319442299719e-7],"type":"VEC3"},{"bufferView":33,"componentType":5126,"count":24,"max":[1,1,1],"min":[-1,-1,-1],"type":"VEC3"},{"bufferView":34,"componentType":5126,"count":24,"max":[0.9962537288665771,0.9962536692619324],"min":[-0.0037462562322616577,0.26155877113342285],"type":"VEC2"},{"bufferView":35,"componentType":5126,"count":1503,"max":[0.008823782205581665,0.017083048820495605,-0.003690198063850403],"min":[-0.004941433668136597,-0.017186880111694336,-0.07892896234989166],"type":"VEC3"},{"bufferView":36,"componentType":5126,"count":1503,"max":[1,1,1],"min":[-0.9999995231628418,-1,-1],"type":"VEC3"},{"bufferView":37,"componentType":5126,"count":1503,"max":[0.8485832214355469,1],"min":[0,0.00795048475265503],"type":"VEC2"},{"bufferView":38,"componentType":5123,"count":4758,"max":[1502],"min":[0],"type":"SCALAR"},{"bufferView":39,"componentType":5126,"count":200,"max":[0.008471190929412842,0.0061299800872802734,-0.017655208706855774],"min":[0.003532051807269454,-0.006234288215637207,-0.07017968595027924],"type":"VEC3"},{"bufferView":40,"componentType":5126,"count":200,"max":[0.9987583160400391,1,0.999442994594574],"min":[-0.040975335985422134,-1,-0.9993111491203308],"type":"VEC3"},{"bufferView":41,"componentType":5126,"count":200,"max":[0.05079396814107895,1],"min":[0,0.00795048475265503],"type":"VEC2"},{"bufferView":42,"componentType":5123,"count":624,"max":[199],"min":[0],"type":"SCALAR"},{"bufferView":43,"componentType":5126,"count":73,"max":[0.15000012516975403,0.7580004930496216,0.300001323223114],"min":[-0.14999988675117493,0.7200005054473877,-0.2999987304210663],"type":"VEC3"},{"bufferView":44,"componentType":5126,"count":73,"max":[1,1,1],"min":[-1,-1,-1],"type":"VEC3"},{"bufferView":45,"componentType":5126,"count":73,"max":[0.8753441572189331,1.2914369106292725],"min":[-0.0011317729949951172,-0.005734682083129883],"type":"VEC2"},{"bufferView":46,"componentType":5123,"count":108,"max":[72],"min":[0],"type":"SCALAR"},{"bufferView":47,"componentType":5126,"count":24,"max":[0.0003000008000526577,0.00045399958617053926,0.00030773115577176213],"min":[-0.0003000008000526577,-0.00045399958617053926,-0.00030773115577176213],"type":"VEC3"},{"bufferView":48,"componentType":5126,"count":24,"max":[1,1,1],"min":[-1,-1,-1],"type":"VEC3"},{"bufferView":49,"componentType":5126,"count":24,"max":[1,1],"min":[0,0],"type":"VEC2"},{"bufferView":50,"componentType":5123,"count":36,"max":[23],"min":[0],"type":"SCALAR"}],"materials":[{"pbrMetallicRoughness":{"metallicFactor":0,"roughnessFactor":0.5},"doubleSided":true,"name":"332_Alpine_white"},{"pbrMetallicRoughness":{"baseColorFactor":[0.4671941101551056,0.4671941101551056,0.4671941101551056,1],"metallicFactor":1,"roughnessFactor":0.30000001192092896},"doubleSided":true,"name":"263_Metal_handle"},{"pbrMetallicRoughness":{"baseColorFactor":[0.4366668462753296,0.4366668462753296,0.4366668462753296,1],"metallicFactor":1,"roughnessFactor":0.30000001192092896},"doubleSided":true,"name":"Metal"},{"pbrMetallicRoughness":{"baseColorFactor":[0.007193580269813538,0.007193580269813538,0.007193580269813538,1],"metallicFactor":0,"roughnessFactor":0.699999988079071},"doubleSided":true,"name":"Black_rough"},{"pbrMetallicRoughness":{"metallicFactor":0,"roughnessFactor":0.699999988079071,"baseColorTexture":{"index":0,"extensions":{"KHR_texture_transform":{"scale":[1.9999999205271435,1]}}}},"doubleSided":true,"name":"354_Concrete_Slate_Grey"},{"pbrMetallicRoughness":{"baseColorFactor":[1,1,1,0],"metallicFactor":0.5,"roughnessFactor":0.5},"alphaMode":"BLEND"}],"meshes":[{"primitives":[{"mode":4,"attributes":{"POSITION":0,"NORMAL":1,"TEXCOORD_0":2},"indices":3,"material":0}]},{"primitives":[{"mode":4,"attributes":{"POSITION":4,"NORMAL":5,"TEXCOORD_0":6},"indices":7,"material":0}]},{"primitives":[{"mode":4,"attributes":{"POSITION":8,"NORMAL":9,"TEXCOORD_0":10},"indices":11,"material":0}]},{"primitives":[{"mode":4,"attributes":{"POSITION":12,"NORMAL":13,"TEXCOORD_0":14},"indices":15,"material":1}]},{"primitives":[{"mode":4,"attributes":{"POSITION":16,"NORMAL":17,"TEXCOORD_0":18},"indices":19,"material":2}]},{"primitives":[{"mode":4,"attributes":{"POSITION":20,"NORMAL":21,"TEXCOORD_0":22},"indices":23,"material":3}]},{"primitives":[{"mode":4,"attributes":{"POSITION":24,"NORMAL":25,"TEXCOORD_0":26},"indices":27,"material":0}]},{"primitives":[{"mode":4,"attributes":{"POSITION":28,"NORMAL":29,"TEXCOORD_0":30},"indices":31,"material":0}]},{"primitives":[{"mode":4,"attributes":{"POSITION":32,"NORMAL":33,"TEXCOORD_0":34},"indices":31,"material":0}]},{"primitives":[{"mode":4,"attributes":{"POSITION":35,"NORMAL":36,"TEXCOORD_0":37},"indices":38,"material":2}]},{"primitives":[{"mode":4,"attributes":{"POSITION":39,"NORMAL":40,"TEXCOORD_0":41},"indices":42,"material":3}]},{"primitives":[{"mode":4,"attributes":{"POSITION":43,"NORMAL":44,"TEXCOORD_0":45},"indices":46,"material":4}]},{"primitives":[{"mode":4,"attributes":{"POSITION":47,"NORMAL":48,"TEXCOORD_0":49},"indices":50,"material":5}]}],"textures":[{"sampler":0,"source":0}],"samplers":[{"magFilter":9729,"minFilter":9987,"wrapS":10497,"wrapT":10497}],"images":[{"mimeType":"image/png","uri":"data:image/png;base64,"}],"extensionsUsed":["KHR_texture_transform"]}